<svg width="598" height="192" viewBox="0 0 598 192" fill="none" xmlns="http://www.w3.org/2000/svg">
<g clip-path="url(#clip0_59_1353)">
<path d="M18.6016 163.593C18.6016 155.404 25.2984 148.766 33.5563 148.766C41.8141 148.766 48.5136 155.404 48.5136 163.593C48.5136 171.781 41.8167 178.417 33.5563 178.417C25.2958 178.417 18.6016 171.778 18.6016 163.593Z" fill="#9D5E55"/>
<path d="M173.514 52.2008C181.101 52.2008 187.252 46.1042 187.252 38.5837C187.252 31.0633 181.101 24.9667 173.514 24.9667C165.928 24.9667 159.777 31.0633 159.777 38.5837C159.777 46.1042 165.928 52.2008 173.514 52.2008Z" fill="#9D5E55"/>
<path d="M11.6267 84.6054C12.3991 81.6213 10.5847 78.5814 7.57425 77.8158C4.56377 77.0501 1.49713 78.8486 0.724729 81.8328C-0.047673 84.8169 1.76665 87.8568 4.77714 88.6224C7.78763 89.3881 10.8543 87.5896 11.6267 84.6054Z" fill="#9D5E55"/>
<path d="M164.648 101.31L176.52 96.4825L164.648 91.6546L159.778 79.8867L154.907 91.6546L143.033 96.4825L154.907 101.31L159.778 113.078L164.648 101.31Z" fill="#9D5E55"/>
<path d="M123.334 189.274L30.8789 163.09L32.2786 161.854L169.577 40.6912L6.44351 84.2038L5.91016 82.2308L177.452 36.4745L35.0468 162.146L123.898 187.311L123.334 189.274Z" fill="#9D5E55"/>
<path d="M101.036 192C88.0278 192 75.4094 189.475 63.5274 184.492C52.0538 179.683 41.7484 172.794 32.8973 164.023C24.0488 155.252 17.0996 145.037 12.2474 133.663C7.22352 121.888 4.67383 109.377 4.67383 96.4821C4.67383 83.5872 7.22091 71.0792 12.2474 59.301C17.0996 47.9277 24.0488 37.7123 32.8973 28.9386C41.7458 20.1675 52.0512 13.2791 63.5274 8.46925C75.4068 3.48924 88.0278 0.964417 101.036 0.964417C114.045 0.964417 126.663 3.48924 138.545 8.47183C150.019 13.2816 160.324 20.1701 169.175 28.9412C178.027 37.7123 184.973 47.9277 189.825 59.3035C194.849 71.0792 197.399 83.5898 197.399 96.4847C197.399 109.38 194.852 121.888 189.825 133.666C184.973 145.039 178.024 155.255 169.175 164.026C160.327 172.797 150.022 179.685 138.545 184.495C126.666 189.475 114.045 192.002 101.036 192.002V192ZM101.036 3.00697C88.3062 3.00697 75.9558 5.47763 64.3313 10.3519C53.1023 15.0611 43.018 21.8 34.3569 30.3854C25.6957 38.9709 18.8974 48.967 14.1467 60.0979C9.22944 71.6208 6.73699 83.8632 6.73699 96.4821C6.73699 109.101 9.22944 121.344 14.1467 132.866C18.8948 143.997 25.6957 153.993 34.3569 162.579C43.018 171.164 53.1023 177.903 64.3313 182.612C75.9558 187.487 88.3062 189.957 101.036 189.957C113.767 189.957 126.117 187.487 137.741 182.612C148.97 177.906 159.055 171.164 167.716 162.579C176.377 153.993 183.175 143.997 187.926 132.866C192.843 121.344 195.336 109.101 195.336 96.4821C195.336 83.8632 192.843 71.6208 187.926 60.0979C183.175 48.967 176.377 38.9709 167.716 30.3854C159.055 21.8 148.97 15.0611 137.741 10.3519C126.117 5.47763 113.767 3.00697 101.036 3.00697Z" fill="#9D5E55"/>
<path d="M59.226 23.0922C65.659 23.0922 70.8739 17.9228 70.8739 11.5461C70.8739 5.16936 65.659 0 59.226 0C52.7931 0 47.5781 5.16936 47.5781 11.5461C47.5781 17.9228 52.7931 23.0922 59.226 23.0922Z" fill="#9D5E55"/>
<path d="M135.557 136.16C102.851 136.16 76.3368 109.877 76.3368 77.4544C76.3368 54.5298 89.6238 34.7258 108.952 25.0598C108.302 25.0418 107.669 24.9618 107.014 24.9618C68.3964 24.9618 37.0898 55.9947 37.0898 94.2745C37.0898 132.554 68.3964 163.587 107.014 163.587C134.223 163.587 157.745 148.149 169.304 125.658C159.725 132.258 148.108 136.155 135.56 136.155L135.557 136.16Z" fill="#9D5E55"/>
</g>
<path d="M332.664 114.489C331.41 114.489 330.521 113.89 329.997 112.707C329.473 111.508 329.266 110.452 329.378 109.521C329.378 108.275 329.346 107.061 329.298 105.862C329.251 104.679 328.981 103.607 328.52 102.677C328.06 101.746 327.393 100.973 326.567 100.342C325.726 99.7274 324.535 99.412 322.963 99.412C322.122 99.412 321.423 99.7747 320.852 100.5C320.28 101.226 319.772 102.062 319.359 102.992C318.946 103.922 318.597 104.885 318.343 105.862C318.073 106.856 317.898 107.644 317.787 108.275C317.152 111.288 316.851 114.394 316.851 117.612V123.841C316.946 126.128 317.247 128.32 317.708 130.449C318.184 132.578 318.962 134.439 320.058 136.048C321.153 137.657 322.582 138.95 324.36 139.943C326.139 140.937 328.377 141.426 331.092 141.426C332.553 141.426 333.918 141.032 335.157 140.259C336.395 139.486 337.538 138.493 338.523 137.31C339.507 136.111 340.428 134.881 341.27 133.572C342.111 132.279 342.778 131.064 343.302 129.913C344.969 126.286 346.303 122.106 347.303 117.391C348.287 112.675 348.843 107.849 348.954 102.929C349.049 98.0084 348.621 93.1509 347.62 88.3881C346.62 83.6252 344.985 79.3986 342.683 75.7082C340.38 72.0335 337.38 69.0528 333.68 66.766C329.981 64.4792 325.408 63.3437 319.978 63.3437C314.548 63.3437 310.214 64.4004 306.356 66.5294C302.498 68.6585 299.56 72.207 297.591 77.1906C296.75 79.4774 296.163 81.9062 295.797 84.5084C295.432 87.0948 295.353 89.5866 295.559 91.9681C295.559 92.2835 295.591 92.5831 295.639 92.8986C295.686 93.214 295.67 93.5767 295.559 93.9868C295.448 95.1223 295.067 95.9581 294.384 96.4786C293.702 96.999 292.955 97.2356 292.114 97.1725C291.272 97.1252 290.494 96.7782 289.764 96.1632C289.034 95.5481 288.621 94.7122 288.51 93.6713C287.367 85.7858 288.145 78.7835 290.86 72.6644C293.575 66.5452 298.639 61.7193 306.054 58.2024C309.182 56.7514 312.738 55.5844 316.708 54.7012C320.677 53.818 324.44 53.3764 327.98 53.3764C332.474 53.3764 336.824 53.7865 341.063 54.6223C345.287 55.4582 349.24 56.783 352.892 58.5809C356.543 60.3945 359.862 62.7759 362.831 65.7409C365.8 68.6901 368.34 72.2543 370.42 76.4021C372.405 80.4395 373.738 85.0288 374.421 90.1702C375.104 95.2958 375.278 100.516 374.977 105.799C374.675 111.083 373.913 116.271 372.706 121.349C371.5 126.428 369.96 130.938 368.086 134.881C366.101 139.139 363.752 142.688 361.037 145.542C358.322 148.397 355.321 150.699 352.034 152.466C348.748 154.232 345.112 155.478 341.143 156.203C337.173 156.929 332.95 157.292 328.457 157.292C325.011 157.292 321.566 156.976 318.121 156.361C314.675 155.746 311.405 154.721 308.324 153.333C305.244 151.929 302.418 150.147 299.862 147.971C297.306 145.794 295.194 143.098 293.527 139.88C290.923 135.007 289.605 129.771 289.605 124.172C289.605 121.886 289.685 119.488 289.843 116.934C290.002 114.394 290.367 111.903 290.939 109.458C291.511 107.029 292.289 104.664 293.289 102.377C294.273 100.09 295.559 98.0714 297.131 96.3051C299.529 93.6083 302.355 91.7473 305.594 90.7064C308.833 89.6655 312.214 89.1451 315.771 89.1451C321.201 89.1451 325.853 90.3594 329.711 92.8039C333.569 95.2484 335.76 99.3174 336.284 105.011C336.379 105.847 336.411 106.588 336.364 107.266C336.316 107.944 336.284 108.701 336.284 109.521C336.284 110.341 336.173 111.13 335.967 111.855C335.76 112.581 335.347 113.212 334.712 113.716C333.982 114.237 333.299 114.489 332.68 114.489H332.664Z" fill="#9D5E55"/>
<path d="M473.763 105.783C473.35 110.341 472.985 114.441 472.667 118.069C472.35 121.286 472.096 124.298 471.889 127.09C471.683 129.897 471.524 131.6 471.413 132.215C471.413 132.83 471.365 133.824 471.254 135.164C471.143 136.521 471.127 137.83 471.175 139.139C471.222 140.432 471.429 141.599 471.794 142.64C472.159 143.681 472.763 144.201 473.588 144.201C474.319 144.201 475.446 143.555 476.954 142.261C478.462 140.968 480.003 139.454 481.574 137.751C483.146 136.048 484.623 134.36 486.036 132.688C487.449 131.032 488.513 129.786 489.243 128.951C490.593 127.295 492.117 125.938 493.784 124.913C495.451 123.872 496.705 124.03 497.547 125.386C497.96 126.112 498.103 126.869 497.944 127.642C497.785 128.414 497.547 129.171 497.245 129.897C496.832 130.733 496.308 131.553 495.673 132.389C492.641 137.057 489.259 141.205 485.496 144.832C482.257 147.939 478.367 150.793 473.826 153.396C469.285 155.982 464.189 157.291 458.552 157.291C454.79 157.291 451.789 156.487 449.55 154.878C447.296 153.269 445.613 151.251 444.454 148.806C443.31 146.378 442.58 143.649 442.263 140.637C441.945 137.625 441.866 134.723 442.024 131.931C442.183 129.14 442.39 126.616 442.644 124.393C442.898 122.169 443.088 120.529 443.199 119.488C443.295 118.037 443.406 116.192 443.517 113.968C443.612 111.744 443.437 109.615 442.961 107.597C442.485 105.578 441.659 103.843 440.453 102.392C439.246 100.941 437.404 100.263 434.896 100.374C431.244 100.484 428.084 102.108 425.417 105.278C422.749 108.448 420.606 112.375 419.002 117.107C417.383 121.822 416.367 126.885 415.954 132.278C415.541 137.672 415.668 142.703 416.351 147.371C417.034 152.039 418.288 155.919 420.114 159.042C421.94 162.149 424.417 163.71 427.56 163.71C428.91 163.71 429.958 163.268 430.688 162.385C431.418 161.502 431.958 160.524 432.339 159.436C432.704 158.348 432.943 157.26 433.038 156.171C433.133 155.083 433.197 154.326 433.197 153.916C433.197 153.08 433.324 152.15 433.594 151.109C433.848 150.068 434.864 149.453 436.642 149.248C437.483 149.137 438.134 149.358 438.595 149.863C439.071 150.383 439.405 150.904 439.611 151.424C439.929 152.15 440.087 152.922 440.087 153.758C440.087 159.152 438.944 163.268 436.642 166.123C434.34 168.977 431.831 171.028 429.116 172.274C425.877 173.724 422.273 174.497 418.304 174.608C410.683 174.608 404.491 172.526 399.743 168.378C394.996 164.23 391.646 159.026 389.725 152.749C387.788 146.472 387.216 139.706 388.01 132.452C388.788 125.197 390.932 118.431 394.425 112.154C397.918 105.878 402.697 100.673 408.762 96.5254C414.811 92.3776 422.178 90.2959 430.847 90.2959C433.768 90.2959 436.309 90.7375 438.436 91.6206C440.58 92.5038 442.374 93.4658 443.834 94.491C445.501 95.6265 446.867 96.9828 447.899 98.5441C449.471 93.04 449.915 88.1983 449.233 84.0032C448.55 79.8082 447.137 76.2281 445.009 73.2632C442.866 70.314 440.135 67.9957 436.785 66.3397C433.435 64.6838 429.942 63.6429 426.29 63.2328C422.638 62.8228 418.955 63.0751 415.255 64.0056C411.556 64.9361 408.206 66.4974 405.237 68.6738C402.268 70.8502 399.839 73.7048 397.949 77.2375C396.076 80.7702 395.076 84.9653 394.98 89.8385C394.98 90.1539 395.012 90.7217 395.06 91.5418C395.107 92.3776 395.091 93.182 394.98 93.9547C394.869 94.7275 394.615 95.4372 394.202 96.0523C393.79 96.6673 393.107 96.9828 392.17 96.9828C391.233 96.9828 390.471 96.7462 389.9 96.2888C389.328 95.8157 388.931 95.2795 388.725 94.6487C388.312 93.9232 388.105 93.0873 388.105 92.1568C387.375 84.9968 388.28 78.8777 390.852 73.7994C393.408 68.7211 396.965 64.5734 401.506 61.3561C406.047 58.1388 411.239 55.8047 417.081 54.3538C422.924 52.9028 428.799 52.2562 434.705 52.4139C440.595 52.5716 446.168 53.5021 451.376 55.2212C456.6 56.9244 460.871 59.2901 464.221 62.3023C467.555 65.4092 469.968 68.7842 471.429 72.4116C472.89 76.0389 473.826 79.7766 474.255 83.609C474.668 87.4413 474.731 91.2579 474.414 95.0429C474.096 98.828 473.89 102.44 473.795 105.862L473.763 105.783Z" fill="#9D5E55"/>
<path d="M410.034 37.3216C411.082 37.1165 411.987 37.1639 412.781 37.4793C413.575 37.7947 414.146 38.2363 414.495 38.804C414.861 39.3718 414.972 40.0026 414.813 40.665C414.654 41.3274 414.21 41.9425 413.479 42.4471C412.336 43.283 410.637 43.8508 408.383 44.1504C406.144 44.4658 403.794 44.5605 401.333 44.4658C398.888 44.3712 396.507 44.1346 394.204 43.7719C391.902 43.4092 390.14 42.9676 388.886 42.4471C385.551 41.1066 383.043 39.2614 381.376 36.9273C379.709 34.5932 378.772 32.0856 378.55 29.3888C378.343 26.8023 378.756 24.1212 379.804 21.3771C380.852 18.6329 382.471 16.1096 384.662 13.8386C386.853 11.5518 389.568 9.64347 392.807 8.08214C396.046 6.52081 399.746 5.59032 403.921 5.2749C417.083 4.13939 429.499 6.52081 441.201 12.4349C446.218 15.0214 450.838 18.0652 455.062 21.5348C459.285 25.0044 463.381 28.7106 467.351 32.6534C467.875 33.2684 468.129 34.057 468.129 34.9875C468.129 35.918 467.716 36.6434 466.874 37.1639C465.938 37.6843 464.89 37.7316 463.746 37.3216C462.603 36.9115 461.603 36.4384 460.762 35.918C458.682 34.8771 456.268 33.7889 453.553 32.6534C450.838 31.5178 448.441 30.5874 446.345 29.8461C442.058 28.2848 437.724 26.9443 433.342 25.793C428.96 24.6575 424.514 23.8216 420.037 23.3012C418.37 23.0961 416.115 22.97 413.305 22.9069C410.479 22.8596 407.637 23.033 404.763 23.4431C401.889 23.8531 399.285 24.5786 396.935 25.6195C394.586 26.6604 393.045 28.1113 392.315 29.9723C391.474 32.3537 391.696 34.0885 392.934 35.1767C394.173 36.2649 395.887 36.9904 398.031 37.3531C400.174 37.7158 402.397 37.8262 404.683 37.6685C406.986 37.5108 408.748 37.3847 410.002 37.2743L410.034 37.3216Z" fill="#9D5E55"/>
<path d="M580.107 56.3104C579.266 62.745 578.536 69.3057 577.916 75.9926C577.297 82.6795 576.821 89.1298 576.503 95.3594C576.186 101.589 576.011 107.44 575.963 112.944C575.916 118.448 576.011 123.243 576.281 127.327C576.535 131.428 576.98 134.645 577.615 136.979C578.25 139.313 579.028 140.48 579.965 140.48C580.695 140.48 581.425 140.117 582.156 139.392C582.886 138.667 583.569 137.689 584.188 136.443C584.807 135.197 585.41 133.778 585.982 132.169C586.554 130.56 587.109 128.936 587.633 127.264C588.776 123.432 589.824 119.016 590.761 114.048C590.761 113.212 590.967 112.487 591.38 111.872C591.587 111.351 591.984 110.831 592.555 110.31C593.127 109.79 593.889 109.538 594.826 109.538C595.762 109.648 596.445 109.948 596.858 110.468C597.271 110.988 597.588 111.556 597.795 112.171C598.001 112.897 598.049 113.78 597.953 114.821C597.223 118.448 596.286 122.075 595.127 125.719C594.19 128.825 593.016 132.153 591.602 135.67C590.189 139.203 588.554 142.42 586.665 145.322C584.68 148.224 582.616 150.384 580.473 151.772C578.329 153.176 576.329 154.185 574.439 154.8C572.248 155.526 570.105 155.888 568.025 155.888C565.104 155.573 562.563 154.548 560.436 152.782C558.292 151.015 556.498 148.744 555.037 145.937C552.942 148.744 550.004 151.331 546.194 153.712C542.383 156.094 537.287 157.292 530.92 157.292C518.282 157.292 508.914 153.318 502.801 145.385C496.689 137.452 494.831 125.908 497.244 110.768L502.262 80.8974L503.516 73.4219C503.834 71.561 503.881 69.8419 503.675 68.2964C503.468 67.0505 503.056 65.8834 502.42 64.7952C501.785 63.707 500.642 63.155 498.975 63.155C496.466 63.155 494.752 63.9278 493.815 65.4891C492.878 67.0504 492.148 68.7853 491.624 70.6936C491.1 72.6176 490.544 74.3524 489.973 75.898C489.401 77.4593 488.274 78.2321 486.607 78.2321C485.67 78.2321 484.987 77.9167 484.575 77.3016C484.162 76.6865 483.924 75.9611 483.876 75.1252C483.828 74.2893 483.844 73.3904 483.955 72.3968C484.066 71.419 484.209 70.5516 484.432 69.8261C484.638 69.1007 485.083 67.6971 485.765 65.6311C486.448 63.5651 487.671 61.436 489.449 59.2596C491.227 57.0832 493.656 55.1591 496.736 53.5032C499.817 51.8472 503.913 51.0744 509.025 51.1691C514.138 51.2795 518.186 52.2257 521.155 54.0394C524.14 55.853 526.3 58.3133 527.649 61.436C528.999 64.5429 529.682 68.2017 529.682 72.3968C529.682 76.5919 529.269 81.134 528.427 86.0072C527.808 89.3349 527.125 93.1041 526.395 97.3623C525.665 101.62 525.03 105.989 524.521 110.515C523.998 115.026 523.632 119.442 523.426 123.731C523.22 128.037 523.378 131.901 523.902 135.323C524.426 138.745 525.363 141.49 526.728 143.571C528.078 145.653 530.063 146.678 532.682 146.678C537.699 146.678 541.637 145.464 544.511 143.019C547.385 140.591 549.607 137.862 551.163 134.85C550.115 130.292 549.417 125.309 549.052 119.915C548.686 114.521 548.528 109.127 548.575 103.734C548.623 98.3401 548.829 93.0726 549.195 87.947C549.56 82.8057 549.973 78.2163 550.449 74.1789C550.925 70.1258 551.338 66.7823 551.703 64.1486C552.068 61.4991 552.306 59.922 552.402 59.4015C552.719 57.5405 553.243 56.3419 553.974 55.8215C554.386 55.5061 554.815 55.3484 555.228 55.3484C558.467 54.9383 561.436 54.5125 564.151 54.1025C566.548 53.787 568.898 53.4874 571.2 53.172C573.503 52.8566 575.217 52.6042 576.36 52.3992C577.504 52.1942 578.345 52.2888 578.869 52.7146C579.393 53.1404 579.758 53.5978 579.965 54.1182C580.171 54.7333 580.219 55.4745 580.123 56.2946L580.107 56.3104Z" fill="#9D5E55"/>
<defs>
<clipPath id="clip0_59_1353">
<rect width="196.849" height="192" fill="white" transform="translate(0.546875)"/>
</clipPath>
</defs>
</svg>
