<svg width="310" height="170" viewBox="0 0 310 170" fill="none" xmlns="http://www.w3.org/2000/svg">
<path d="M44.6642 109.489C43.4099 109.489 42.5207 108.89 41.9968 107.707C41.4728 106.508 41.2664 105.452 41.3776 104.521C41.3776 103.275 41.3458 102.061 41.2982 100.862C41.2506 99.6795 40.9807 98.6071 40.5202 97.6766C40.0598 96.7461 39.3929 95.9733 38.5673 95.3425C37.7258 94.7274 36.5351 94.412 34.9632 94.412C34.1217 94.412 33.4231 94.7747 32.8515 95.5002C32.28 96.2256 31.7719 97.0615 31.3591 97.992C30.9463 98.9225 30.597 99.8845 30.343 100.862C30.073 101.856 29.8984 102.644 29.7873 103.275C29.1522 106.288 28.8505 109.394 28.8505 112.612V118.841C28.9458 121.128 29.2474 123.32 29.7079 125.449C30.1842 127.578 30.9622 129.439 32.0577 131.048C33.1532 132.657 34.5822 133.95 36.3604 134.943C38.1386 135.937 40.3773 136.426 43.0923 136.426C44.553 136.426 45.9185 136.032 47.1569 135.259C48.3953 134.486 49.5385 133.493 50.5228 132.31C51.5072 131.111 52.4281 129.881 53.2696 128.572C54.1111 127.279 54.7779 126.064 55.3019 124.913C56.969 121.286 58.3026 117.106 59.3029 112.391C60.2873 107.675 60.843 102.849 60.9541 97.9289C61.0494 93.0084 60.6207 88.1509 59.6205 83.3881C58.6202 78.6252 56.9848 74.3986 54.6827 70.7082C52.3805 67.0335 49.3797 64.0528 45.6803 61.766C41.9809 59.4792 37.4083 58.3437 31.9783 58.3437C26.5483 58.3437 22.2138 59.4004 18.3557 61.5294C14.4975 63.6585 11.5603 67.207 9.59149 72.1906C8.75 74.4774 8.16255 76.9062 7.79737 79.5084C7.4322 82.0948 7.35281 84.5866 7.55921 86.9681C7.55921 87.2835 7.59097 87.5831 7.6386 87.8986C7.68623 88.214 7.67035 88.5767 7.55921 88.9868C7.44807 90.1223 7.06702 90.9581 6.3843 91.4786C5.70159 91.999 4.95536 92.2356 4.11387 92.1725C3.27238 92.1252 2.4944 91.7782 1.76405 91.1632C1.0337 90.5481 0.620892 89.7122 0.509752 88.6713C-0.633405 80.7858 0.144576 73.7835 2.85957 67.6644C5.57457 61.5452 10.6394 56.7193 18.054 53.2024C21.1818 51.7514 24.7383 50.5844 28.7076 49.7012C32.6769 48.818 36.4398 48.3764 39.9804 48.3764C44.4736 48.3764 48.824 48.7865 53.0632 49.6223C57.2865 50.4582 61.2399 51.783 64.8917 53.5809C68.5434 55.3945 71.8617 57.7759 74.8308 60.7409C77.7998 63.6901 80.3402 67.2543 82.4201 71.4021C84.4047 75.4395 85.7384 80.0288 86.4211 85.1702C87.1038 90.2958 87.2785 95.5159 86.9768 100.799C86.6751 106.083 85.913 111.271 84.7064 116.349C83.4997 121.428 81.9596 125.938 80.0861 129.881C78.1015 134.139 75.7517 137.688 73.0367 140.542C70.3217 143.397 67.3209 145.699 64.0343 147.466C60.7477 149.232 57.1119 150.478 53.1426 151.203C49.1733 151.929 44.9499 152.292 40.4567 152.292C37.0114 152.292 33.566 151.976 30.1207 151.361C26.6753 150.746 23.4046 149.721 20.3245 148.333C17.2443 146.929 14.4182 145.147 11.8619 142.971C9.3057 140.794 7.19404 138.098 5.52694 134.88C2.92308 130.007 1.60528 124.771 1.60528 119.172C1.60528 116.886 1.68466 114.488 1.84343 111.934C2.00221 109.394 2.36738 106.903 2.93896 104.458C3.51054 102.029 4.28852 99.6637 5.28878 97.3769C6.27316 95.0901 7.55921 93.0714 9.13105 91.3051C11.5285 88.6083 14.3546 86.7473 17.5936 85.7064C20.8325 84.6655 24.2144 84.1451 27.7709 84.1451C33.2008 84.1451 37.8529 85.3594 41.711 87.8039C45.5692 90.2484 47.7602 94.3174 48.2842 100.011C48.3794 100.847 48.4112 101.588 48.3635 102.266C48.3159 102.944 48.2842 103.701 48.2842 104.521C48.2842 105.341 48.173 106.13 47.9666 106.855C47.7602 107.581 47.3474 108.212 46.7123 108.716C45.982 109.237 45.2992 109.489 44.68 109.489H44.6642Z" fill="#FFF4F1"/>
<path d="M185.763 100.783C185.35 105.341 184.985 109.441 184.667 113.069C184.35 116.286 184.096 119.298 183.889 122.09C183.683 124.897 183.524 126.6 183.413 127.215C183.413 127.83 183.365 128.824 183.254 130.164C183.143 131.521 183.127 132.83 183.175 134.139C183.222 135.432 183.429 136.599 183.794 137.64C184.159 138.681 184.763 139.201 185.588 139.201C186.319 139.201 187.446 138.555 188.954 137.261C190.462 135.968 192.003 134.454 193.574 132.751C195.146 131.048 196.623 129.36 198.036 127.688C199.449 126.032 200.513 124.786 201.243 123.951C202.593 122.295 204.117 120.938 205.784 119.913C207.451 118.872 208.705 119.03 209.547 120.386C209.96 121.112 210.103 121.869 209.944 122.642C209.785 123.414 209.547 124.171 209.245 124.897C208.832 125.733 208.308 126.553 207.673 127.389C204.641 132.057 201.259 136.205 197.496 139.832C194.257 142.939 190.367 145.793 185.826 148.396C181.285 150.982 176.189 152.291 170.552 152.291C166.79 152.291 163.789 151.487 161.55 149.878C159.296 148.269 157.613 146.251 156.454 143.806C155.31 141.378 154.58 138.649 154.263 135.637C153.945 132.625 153.866 129.723 154.024 126.931C154.183 124.14 154.39 121.616 154.644 119.393C154.898 117.169 155.088 115.529 155.199 114.488C155.295 113.037 155.406 111.192 155.517 108.968C155.612 106.744 155.437 104.615 154.961 102.597C154.485 100.578 153.659 98.8432 152.453 97.3922C151.246 95.9413 149.404 95.2631 146.896 95.3735C143.244 95.4839 140.084 97.1083 137.417 100.278C134.749 103.448 132.606 107.375 131.002 112.107C129.383 116.822 128.367 121.885 127.954 127.278C127.541 132.672 127.668 137.703 128.351 142.371C129.034 147.039 130.288 150.919 132.114 154.042C133.94 157.149 136.417 158.71 139.56 158.71C140.91 158.71 141.958 158.268 142.688 157.385C143.418 156.502 143.958 155.524 144.339 154.436C144.704 153.348 144.943 152.26 145.038 151.171C145.133 150.083 145.197 149.326 145.197 148.916C145.197 148.08 145.324 147.15 145.594 146.109C145.848 145.068 146.864 144.453 148.642 144.248C149.483 144.137 150.134 144.358 150.595 144.863C151.071 145.383 151.405 145.904 151.611 146.424C151.929 147.15 152.087 147.922 152.087 148.758C152.087 154.152 150.944 158.268 148.642 161.123C146.34 163.977 143.831 166.028 141.116 167.274C137.877 168.724 134.273 169.497 130.304 169.608C122.683 169.608 116.491 167.526 111.743 163.378C106.996 159.23 103.646 154.026 101.725 147.749C99.7879 141.472 99.2164 134.706 100.01 127.452C100.788 120.197 102.932 113.431 106.425 107.154C109.918 100.878 114.697 95.6732 120.762 91.5254C126.811 87.3776 134.178 85.2959 142.847 85.2959C145.768 85.2959 148.309 85.7375 150.436 86.6206C152.58 87.5038 154.374 88.4658 155.834 89.491C157.501 90.6265 158.867 91.9828 159.899 93.5441C161.471 88.04 161.915 83.1983 161.233 79.0032C160.55 74.8082 159.137 71.2281 157.009 68.2632C154.866 65.314 152.135 62.9957 148.785 61.3397C145.435 59.6838 141.942 58.6429 138.29 58.2328C134.638 57.8228 130.955 58.0751 127.255 59.0056C123.556 59.9361 120.206 61.4974 117.237 63.6738C114.268 65.8502 111.839 68.7048 109.949 72.2375C108.076 75.7702 107.076 79.9653 106.98 84.8385C106.98 85.1539 107.012 85.7217 107.06 86.5418C107.107 87.3776 107.091 88.182 106.98 88.9547C106.869 89.7275 106.615 90.4372 106.202 91.0523C105.79 91.6673 105.107 91.9828 104.17 91.9828C103.233 91.9828 102.471 91.7462 101.9 91.2888C101.328 90.8157 100.931 90.2795 100.725 89.6487C100.312 88.9232 100.105 88.0873 100.105 87.1568C99.3751 79.9968 100.28 73.8777 102.852 68.7994C105.408 63.7211 108.965 59.5734 113.506 56.3561C118.047 53.1388 123.239 50.8047 129.081 49.3538C134.924 47.9028 140.799 47.2562 146.705 47.4139C152.595 47.5716 158.168 48.5021 163.376 50.2212C168.6 51.9244 172.871 54.2901 176.221 57.3023C179.555 60.4092 181.968 63.7842 183.429 67.4116C184.89 71.0389 185.826 74.7766 186.255 78.609C186.668 82.4413 186.731 86.2579 186.414 90.0429C186.096 93.828 185.89 97.4395 185.795 100.862L185.763 100.783Z" fill="#FFF4F1"/>
<path d="M122.035 32.3216C123.083 32.1165 123.988 32.1639 124.782 32.4793C125.576 32.7947 126.147 33.2363 126.496 33.804C126.862 34.3718 126.973 35.0026 126.814 35.665C126.655 36.3274 126.211 36.9425 125.48 37.4471C124.337 38.283 122.638 38.8508 120.384 39.1504C118.145 39.4658 115.795 39.5605 113.334 39.4658C110.889 39.3712 108.508 39.1346 106.205 38.7719C103.903 38.4092 102.141 37.9676 100.887 37.4471C97.5524 36.1066 95.0438 34.2614 93.3767 31.9273C91.7096 29.5932 90.7728 27.0856 90.5506 24.3888C90.3441 21.8023 90.757 19.1212 91.8048 16.3771C92.8527 13.6329 94.4722 11.1096 96.6633 8.83855C98.8543 6.55176 101.569 4.64347 104.808 3.08214C108.047 1.52081 111.747 0.590321 115.922 0.274901C129.084 -0.860611 141.5 1.52081 153.202 7.43493C158.219 10.0214 162.839 13.0652 167.063 16.5348C171.286 20.0044 175.382 23.7106 179.352 27.6534C179.876 28.2684 180.13 29.057 180.13 29.9875C180.13 30.918 179.717 31.6434 178.875 32.1639C177.938 32.6843 176.891 32.7316 175.747 32.3216C174.604 31.9115 173.604 31.4384 172.763 30.918C170.683 29.8771 168.269 28.7889 165.554 27.6534C162.839 26.5178 160.442 25.5874 158.346 24.8461C154.059 23.2848 149.725 21.9443 145.343 20.793C140.961 19.6575 136.515 18.8216 132.038 18.3012C130.37 18.0961 128.116 17.97 125.306 17.9069C122.48 17.8596 119.638 18.033 116.764 18.4431C113.89 18.8531 111.286 19.5786 108.936 20.6195C106.586 21.6604 105.046 23.1113 104.316 24.9723C103.475 27.3537 103.697 29.0885 104.935 30.1767C106.174 31.2649 107.888 31.9904 110.032 32.3531C112.175 32.7158 114.398 32.8262 116.684 32.6685C118.987 32.5108 120.749 32.3847 122.003 32.2743L122.035 32.3216Z" fill="#FFF4F1"/>
<path d="M292.107 51.3104C291.266 57.745 290.536 64.3057 289.916 70.9926C289.297 77.6795 288.821 84.1298 288.503 90.3594C288.186 96.5889 288.011 102.44 287.963 107.944C287.916 113.448 288.011 118.243 288.281 122.327C288.535 126.428 288.98 129.645 289.615 131.979C290.25 134.313 291.028 135.48 291.965 135.48C292.695 135.48 293.425 135.117 294.156 134.392C294.886 133.667 295.569 132.689 296.188 131.443C296.807 130.197 297.41 128.778 297.982 127.169C298.554 125.56 299.109 123.936 299.633 122.264C300.776 118.432 301.824 114.016 302.761 109.048C302.761 108.212 302.967 107.487 303.38 106.872C303.587 106.351 303.984 105.831 304.555 105.31C305.127 104.79 305.889 104.538 306.826 104.538C307.762 104.648 308.445 104.948 308.858 105.468C309.271 105.988 309.588 106.556 309.795 107.171C310.001 107.897 310.049 108.78 309.953 109.821C309.223 113.448 308.286 117.075 307.127 120.719C306.19 123.825 305.016 127.153 303.602 130.67C302.189 134.203 300.554 137.42 298.665 140.322C296.68 143.224 294.616 145.384 292.473 146.772C290.329 148.176 288.329 149.185 286.439 149.8C284.248 150.526 282.105 150.888 280.025 150.888C277.104 150.573 274.563 149.548 272.436 147.782C270.292 146.015 268.498 143.744 267.037 140.937C264.942 143.744 262.004 146.331 258.194 148.712C254.383 151.094 249.287 152.292 242.92 152.292C230.282 152.292 220.914 148.318 214.801 140.385C208.689 132.452 206.831 120.908 209.244 105.768L214.262 75.8974L215.516 68.4219C215.834 66.561 215.881 64.8419 215.675 63.2964C215.468 62.0505 215.056 60.8834 214.42 59.7952C213.785 58.707 212.642 58.155 210.975 58.155C208.466 58.155 206.752 58.9278 205.815 60.4891C204.878 62.0504 204.148 63.7853 203.624 65.6936C203.1 67.6176 202.544 69.3524 201.973 70.898C201.401 72.4593 200.274 73.2321 198.607 73.2321C197.67 73.2321 196.987 72.9167 196.575 72.3016C196.162 71.6865 195.924 70.9611 195.876 70.1252C195.828 69.2893 195.844 68.3904 195.955 67.3968C196.066 66.419 196.209 65.5516 196.432 64.8261C196.638 64.1007 197.083 62.6971 197.765 60.6311C198.448 58.5651 199.671 56.436 201.449 54.2596C203.227 52.0832 205.656 50.1591 208.736 48.5032C211.817 46.8472 215.913 46.0744 221.025 46.1691C226.138 46.2795 230.186 47.2257 233.155 49.0394C236.14 50.853 238.3 53.3133 239.649 56.436C240.999 59.5429 241.682 63.2017 241.682 67.3968C241.682 71.5919 241.269 76.134 240.427 81.0072C239.808 84.3349 239.125 88.1041 238.395 92.3623C237.665 96.6205 237.03 100.989 236.521 105.515C235.998 110.026 235.632 114.442 235.426 118.731C235.22 123.037 235.378 126.901 235.902 130.323C236.426 133.745 237.363 136.49 238.728 138.571C240.078 140.653 242.063 141.678 244.682 141.678C249.699 141.678 253.637 140.464 256.511 138.019C259.385 135.591 261.607 132.862 263.163 129.85C262.115 125.292 261.417 120.309 261.052 114.915C260.686 109.521 260.528 104.127 260.575 98.7338C260.623 93.3401 260.829 88.0726 261.195 82.947C261.56 77.8057 261.973 73.2163 262.449 69.1789C262.925 65.1258 263.338 61.7823 263.703 59.1486C264.068 56.4991 264.306 54.922 264.402 54.4015C264.719 52.5405 265.243 51.3419 265.974 50.8215C266.386 50.5061 266.815 50.3484 267.228 50.3484C270.467 49.9383 273.436 49.5125 276.151 49.1025C278.548 48.787 280.898 48.4874 283.2 48.172C285.503 47.8566 287.217 47.6042 288.36 47.3992C289.504 47.1942 290.345 47.2888 290.869 47.7146C291.393 48.1404 291.758 48.5978 291.965 49.1182C292.171 49.7333 292.219 50.4745 292.123 51.2946L292.107 51.3104Z" fill="#FFF4F1"/>
</svg>
